<svg xmlns="http://www.w3.org/2000/svg" width="128" height="128" viewBox="0 0 128 128" fill="none">
  <defs>
    <linearGradient id="g" x1="16" y1="16" x2="112" y2="112" gradientUnits="userSpaceOnUse">
      <stop stop-color="#D4AF37"/>
      <stop offset="1" stop-color="#B8891A"/>
    </linearGradient>
  </defs>
  <circle cx="64" cy="64" r="54" stroke="url(#g)" stroke-width="6"/>
  <path d="M64 28c12 0 22 10 22 22 0 7-3 13-8 17 7 3 12 10 12 19 0 12-10 22-26 22S38 98 38 86c0-9 5-16 12-19-5-4-8-10-8-17 0-12 10-22 22-22z" fill="url(#g)" opacity="0.18"/>
  <path d="M45 55c6-9 12-13 19-13 8 0 14 4 19 13" stroke="url(#g)" stroke-width="5" stroke-linecap="round"/>
  <path d="M44 74c7 7 13 10 20 10 8 0 14-3 20-10" stroke="url(#g)" stroke-width="5" stroke-linecap="round"/>
  <path d="M64 44v40" stroke="url(#g)" stroke-width="5" stroke-linecap="round"/>
</svg>
